<?xml version="1.0" encoding="utf-8" ?>
<svg xmlns="http://www.w3.org/2000/svg" xmlns:xlink="http://www.w3.org/1999/xlink" width="1024" height="1024">
	<defs>
		<linearGradient id="gradient_0" gradientUnits="userSpaceOnUse" x1="639.61115" y1="634.76074" x2="846.23328" y2="844.93103">
			<stop offset="0" stop-color="#5FA293"/>
			<stop offset="1" stop-color="#75D1BC"/>
		</linearGradient>
	</defs>
	<path fill="url(#gradient_0)" d="M806.186 466.348C813.412 469.986 835.077 493.92 841.973 500.768L946.656 605.416C955.474 614.165 963.843 623.402 972.812 631.989C968.58 646.318 964.218 660.518 958.853 674.476Q956.965 679.459 954.967 684.4Q952.969 689.34 950.862 694.234Q948.755 699.129 946.54 703.975Q944.324 708.822 942.002 713.618Q939.679 718.414 937.25 723.157Q934.822 727.901 932.288 732.589Q929.755 737.277 927.118 741.908Q924.481 746.539 921.742 751.11Q919.003 755.681 916.163 760.19Q913.323 764.699 910.383 769.144Q907.444 773.589 904.406 777.967Q901.369 782.345 898.234 786.655Q895.1 790.965 891.871 795.204Q888.642 799.443 885.32 803.61Q881.997 807.776 878.583 811.867Q875.169 815.959 871.664 819.974Q868.16 823.988 864.568 827.924Q860.975 831.86 857.296 835.715Q853.616 839.57 849.852 843.342Q846.089 847.114 842.242 850.802Q838.395 854.49 834.467 858.091Q830.539 861.692 826.532 865.205Q822.526 868.718 818.442 872.142Q814.358 875.565 810.199 878.897Q806.04 882.228 801.808 885.467Q797.576 888.705 793.273 891.849Q788.97 894.992 784.598 898.04Q780.227 901.087 775.788 904.036Q771.35 906.985 766.847 909.835Q762.344 912.685 757.779 915.435Q753.214 918.184 748.589 920.831Q743.965 923.478 739.282 926.022C705.643 944.35 670.51 957.206 633.807 967.741C630.967 963.111 609.975 944.249 604.616 938.91L508.863 843.178Q493.231 827.709 477.962 811.881C473.811 807.568 468.726 803.237 465.429 798.246C480.54 806.89 493.379 810.045 510.67 811.21C512.971 811.743 516.007 811.477 518.356 811.405C532.631 810.97 547.053 807.143 559.387 799.888C571.657 792.67 580.982 781.603 590.742 771.446Q601.684 760.035 612.869 748.863L717.13 643.652L774.765 585.456C783.975 576.084 793.942 567.193 802.333 557.067C809.165 548.823 813.787 539.834 816.47 529.462C822.103 507.683 817.419 485.475 806.186 466.348Z"/>
	<path fill="#83C5BE" d="M633.807 967.741C622.075 970.355 610.57 973.606 598.713 975.714Q592.184 976.908 585.624 977.923Q579.065 978.937 572.48 979.771Q565.895 980.604 559.289 981.257Q552.684 981.909 546.063 982.379Q539.442 982.849 532.811 983.137Q526.18 983.425 519.543 983.531Q512.907 983.637 506.27 983.56Q499.632 983.482 493 983.223Q486.368 982.963 479.745 982.521Q473.122 982.08 466.514 981.456Q459.906 980.832 453.317 980.027Q446.729 979.221 440.165 978.235Q433.601 977.249 427.067 976.083Q420.533 974.916 414.033 973.571Q407.533 972.225 401.073 970.701Q394.613 969.177 388.197 967.476Q382.588 965.95 377.018 964.289Q371.447 962.628 365.919 960.832Q360.39 959.037 354.907 957.108Q349.423 955.179 343.988 953.119Q338.552 951.058 333.169 948.866Q327.785 946.675 322.456 944.353Q317.126 942.032 311.855 939.583Q306.583 937.133 301.373 934.557Q296.162 931.98 291.015 929.279Q285.868 926.577 280.788 923.752Q275.708 920.927 270.698 917.979Q265.688 915.032 260.75 911.964Q255.813 908.896 250.951 905.71Q246.089 902.524 241.306 899.221Q236.523 895.918 231.821 892.5Q227.119 889.082 222.501 885.552Q217.883 882.021 213.352 878.38Q208.821 874.739 204.379 870.99Q199.937 867.24 195.588 863.384Q191.238 859.528 186.983 855.568Q182.728 851.608 178.569 847.546Q174.411 843.484 170.353 839.323Q166.294 835.161 162.337 830.903Q158.38 826.645 154.528 822.292Q150.675 817.939 146.929 813.494Q143.183 809.05 139.545 804.516Q135.908 799.982 132.381 795.361Q128.854 790.741 125.44 786.036Q122.026 781.331 118.727 776.545Q115.427 771.76 112.245 766.895Q109.062 762.031 105.999 757.091Q102.935 752.151 99.9912 747.139C50.1786 660.397 27.98 570.644 36.4962 470.547Q37.3945 459.531 38.7872 448.566Q40.1798 437.601 42.0641 426.71Q43.9483 415.819 46.3202 405.023Q48.6922 394.228 51.5471 383.55Q53.0699 377.916 54.7296 372.32Q56.3893 366.724 58.1848 361.171Q59.9803 355.617 61.9106 350.109Q63.8409 344.601 65.9049 339.142Q67.9688 333.682 70.1652 328.275Q72.3616 322.867 74.689 317.515Q77.0165 312.162 79.4738 306.868Q81.931 301.574 84.5165 296.342Q87.1019 291.109 89.8142 285.941Q92.5264 280.773 95.3637 275.672Q98.2011 270.572 101.162 265.542Q104.123 260.512 107.205 255.556Q110.288 250.6 113.49 245.72Q116.692 240.841 120.013 236.041Q123.333 231.24 126.769 226.523Q130.205 221.805 133.756 217.172Q137.306 212.54 140.968 207.995Q144.63 203.45 148.401 198.996Q152.173 194.542 156.052 190.181Q159.931 185.82 163.916 181.555Q167.9 177.289 171.987 173.123Q176.074 168.956 180.261 164.89Q184.448 160.824 188.733 156.861Q193.018 152.898 197.399 149.041Q201.779 145.184 206.252 141.435Q210.725 137.686 215.288 134.047Q219.852 130.407 224.502 126.881Q229.152 123.354 233.887 119.941Q238.622 116.529 243.439 113.233Q248.256 109.936 253.152 106.759Q258.047 103.581 263.019 100.523Q267.99 97.4658 273.035 94.5303Q278.119 91.6099 283.273 88.8151Q288.426 86.0202 293.647 83.3525Q298.868 80.6849 304.153 78.146Q309.437 75.6071 314.782 73.1986Q320.128 70.7901 325.53 68.5134Q330.933 66.2366 336.39 64.093Q341.847 61.9494 347.355 59.9402Q352.863 57.9311 358.418 56.0575Q363.973 54.184 369.573 52.4473Q375.173 50.7105 380.814 49.1116Q386.454 47.5126 392.132 46.0525Q397.81 44.5923 403.522 43.2718Q409.235 41.9513 414.978 40.7712Q420.72 39.5912 426.49 38.5523Q432.261 37.5134 438.054 36.6162Q443.848 35.7191 449.662 34.9643Q455.476 34.2095 461.307 33.5975Q467.138 32.9855 472.982 32.5166Q478.826 32.0477 484.68 31.7222Q490.534 31.3968 496.394 31.2149Q502.254 31.0331 508.116 30.995Q513.979 30.9569 519.841 31.0625Q525.703 31.1682 531.56 31.4175Q537.418 31.6668 543.268 32.0597Q549.117 32.4526 554.956 32.9887Q560.794 33.5249 566.617 34.2041Q572.441 34.8832 578.246 35.705Q584.051 36.5267 589.834 37.4905Q595.617 38.4543 601.374 39.5596Q607.132 40.6649 612.861 41.911Q618.59 43.1572 624.286 44.5434Q629.983 45.9296 635.644 47.4551Q641.394 49.003 647.103 50.6937Q652.812 52.3844 658.478 54.2168Q664.143 56.0491 669.761 58.0221Q675.379 59.995 680.946 62.1073Q686.513 64.2196 692.026 66.47Q697.539 68.7203 702.994 71.1072Q708.449 73.4942 713.843 76.0163Q719.237 78.5384 724.566 81.1942Q729.895 83.8499 735.157 86.6375Q740.418 89.4251 745.609 92.343Q750.799 95.2609 755.916 98.3071Q761.032 101.353 766.07 104.526Q771.109 107.699 776.067 110.996Q781.025 114.294 785.9 117.713Q790.774 121.133 795.562 124.673Q800.349 128.213 805.047 131.872Q809.745 135.53 814.351 139.304Q818.956 143.079 823.466 146.966Q827.976 150.854 832.388 154.853Q836.799 158.852 841.11 162.96Q845.421 167.067 849.628 171.281Q853.835 175.495 857.936 179.812Q862.036 184.129 866.028 188.547Q870.02 192.965 873.901 197.481Q877.782 201.997 881.549 206.609Q885.316 211.22 888.967 215.924Q892.617 220.628 896.15 225.421Q899.683 230.214 903.095 235.094Q906.507 239.974 909.796 244.937Q913.086 249.901 916.25 254.944Q919.415 259.988 922.453 265.109Q925.491 270.23 928.401 275.425Q931.226 280.443 933.929 285.528Q936.632 290.613 939.21 295.762Q941.788 300.912 944.241 306.122Q946.693 311.333 949.018 316.601Q951.343 321.87 953.54 327.193Q955.736 332.516 957.802 337.892Q959.869 343.267 961.804 348.691Q963.739 354.115 965.541 359.584Q967.344 365.053 969.013 370.565Q970.682 376.076 972.217 381.627Q973.751 387.177 975.151 392.763Q976.55 398.35 977.813 403.968Q979.076 409.586 980.203 415.234Q981.329 420.882 982.317 426.555Q983.306 432.228 984.156 437.923Q985.007 443.619 985.719 449.334Q986.43 455.048 987.003 460.778Q987.576 466.509 988.009 472.251Q988.442 477.993 988.736 483.745Q989.029 489.496 989.183 495.253Q989.337 501.009 989.35 506.768Q989.364 512.527 989.238 518.284Q989.111 524.041 988.845 529.794Q988.579 535.546 988.173 541.291Q987.767 547.035 987.222 552.768Q986.677 558.501 985.992 564.219Q985.307 569.937 984.484 575.636Q983.661 581.336 982.699 587.014Q981.737 592.691 980.638 598.344Q979.539 603.997 978.302 609.621Q977.066 615.246 975.693 620.839Q974.32 626.431 972.812 631.989C963.843 623.402 955.474 614.165 946.656 605.416L841.973 500.768C835.077 493.92 813.412 469.986 806.186 466.348C817.419 485.475 822.103 507.683 816.47 529.462C813.787 539.834 809.165 548.823 802.333 557.067C793.942 567.193 783.975 576.084 774.765 585.456L717.13 643.652L612.869 748.863Q601.684 760.035 590.742 771.446C580.982 781.603 571.657 792.67 559.387 799.888C547.053 807.143 532.631 810.97 518.356 811.405C516.007 811.477 512.971 811.743 510.67 811.21C493.379 810.045 480.54 806.89 465.429 798.246C468.726 803.237 473.811 807.568 477.962 811.881Q493.231 827.709 508.863 843.178L604.616 938.91C609.975 944.249 630.967 963.111 633.807 967.741Z"/>
	<path fill="#22989F" d="M465.429 798.246C457.222 791.705 449.952 783.988 442.522 776.6L408.81 743.077Q343.658 679.146 279.35 614.364L245.041 579.964C223.189 558.083 204.3 542.904 204.37 509.028C204.398 495.91 208.783 480.325 216.516 469.585C224.547 458.433 235.553 448.969 245.283 439.305L289.837 394.777L454.843 230.289C471.064 214.202 488.505 203.871 512.037 203.956C511.573 219.651 511.78 235.399 511.754 251.103L511.824 342.336L511.993 420.306C512.022 433.528 511.544 446.958 512.094 460.152C512.147 461.428 512.214 462.326 512.749 463.495L511.184 467.331C513.116 473.102 511.981 519.734 512.147 529.725C512.219 534.08 511.744 539.514 512.827 543.679C512.218 545.502 511.63 547.331 510.923 549.12C511.733 553.065 510.799 810.854 510.67 811.21C493.379 810.045 480.54 806.89 465.429 798.246Z"/>
	<path fill="#197077" d="M398.967 625.317C386.033 611.235 372.035 598.042 358.423 584.614C348.175 574.504 338.284 564.05 327.976 554C317.393 543.682 307.261 533.145 297.127 522.398C294.556 519.672 291.418 517.341 289.058 514.459C288.355 513.601 287.999 512.959 287.841 511.834C288.336 510.409 288.882 510.032 290.033 509.147L366.678 585.719C378.487 597.579 389.999 610.078 402.252 621.456C402.253 621.558 402.281 621.663 402.256 621.762C401.826 623.421 400.229 624.273 398.967 625.317Z"/>
	<path fill="#EDF6F9" d="M511.184 467.331C513.116 473.102 511.981 519.734 512.147 529.725C512.219 534.08 511.744 539.514 512.827 543.679C512.218 545.502 511.63 547.331 510.923 549.12L468.598 647.774C465.896 654.1 464.098 659.95 457.041 662.564C452.953 664.078 448.144 663.764 444.216 661.892C440.357 660.054 437.34 656.284 436.051 652.249C435.26 649.774 435.064 647.248 435.842 644.749C439.114 634.233 444.207 623.91 448.502 613.764L473.196 555.943Q485.205 528.505 496.693 500.845C501.387 489.713 505.723 478.091 511.184 467.331Z"/>
	<path fill="#EDF6F9" d="M403.17 392.537C410.016 400.212 417.53 407.367 424.789 414.653C414.957 425.605 404.423 435.886 394.062 446.333L355.4 485.693C348.251 492.996 340.906 500.179 334.112 507.813C347.65 520.416 360.441 533.813 373.517 546.891C390.597 563.974 407.937 580.949 424.414 598.617C417.106 606.089 408.9 613.44 402.252 621.456C389.999 610.078 378.487 597.579 366.678 585.719L290.033 509.147L289.676 508.036C292.239 503.402 316.68 480.133 322.328 474.436L403.17 392.537Z"/>
	<path fill="#197077" d="M512.037 203.956C527.301 204.039 541.465 208.16 554.1 216.837C567.492 226.034 580.184 240.828 591.804 252.468L639.392 299.571L796.209 455.507C799.638 458.97 803.144 462.541 806.186 466.348C817.419 485.475 822.103 507.683 816.47 529.462C813.787 539.834 809.165 548.823 802.333 557.067C793.942 567.193 783.975 576.084 774.765 585.456L717.13 643.652L612.869 748.863Q601.684 760.035 590.742 771.446C580.982 781.603 571.657 792.67 559.387 799.888C547.053 807.143 532.631 810.97 518.356 811.405C516.007 811.477 512.971 811.743 510.67 811.21C510.799 810.854 511.733 553.065 510.923 549.12C511.63 547.331 512.218 545.502 512.827 543.679C511.744 539.514 512.219 534.08 512.147 529.725C511.981 519.734 513.116 473.102 511.184 467.331L512.749 463.495C512.214 462.326 512.147 461.428 512.094 460.152C511.544 446.958 512.022 433.528 511.993 420.306L511.824 342.336L511.754 251.103C511.78 235.399 511.573 219.651 512.037 203.956Z"/>
	<path fill="#2EAEAD" d="M512.749 463.495L545.9 389.166C550.974 377.682 556.363 362.092 562.621 351.597C564.549 348.364 566.943 345.299 570.521 343.825C574.517 342.178 579.086 342.622 582.937 344.449Q583.686 344.799 584.397 345.22Q585.108 345.642 585.774 346.131Q586.441 346.621 587.056 347.173Q587.671 347.725 588.229 348.335Q588.787 348.945 589.282 349.607Q589.777 350.268 590.206 350.975Q590.634 351.683 590.99 352.428Q591.347 353.174 591.629 353.951C592.984 357.765 592.625 361.374 591.356 365.148C589.077 371.926 585.329 378.403 582.542 385.009Q568.548 417.44 554.078 449.662L527.958 509.775C523.15 520.89 518.662 532.464 513.091 543.206C513.008 543.367 512.915 543.521 512.827 543.679C511.744 539.514 512.219 534.08 512.147 529.725C511.981 519.734 513.116 473.102 511.184 467.331L512.749 463.495Z"/>
	<path fill="#2EAEAD" d="M621.44 391.883C625.931 395.656 630 400.28 634.076 404.49Q644.105 414.941 654.355 425.176L736.032 506.669L674.476 569.139C656.331 587.255 637.411 605.101 620.394 624.278C617.177 621.888 614.194 617.903 611.377 614.938Q604.018 607.265 596.488 599.76C617.653 579.117 638.359 557.938 659.25 537.013C669.426 526.821 679.385 516.303 690.068 506.643C673.516 491.152 657.824 474.498 641.821 458.428C627.411 443.957 612.372 429.83 598.446 414.906C606.105 407.32 614.342 399.985 621.44 391.883Z"/>
</svg>
